<svg width="20" height="14" viewBox="0 0 20 14" fill="none" xmlns="http://www.w3.org/2000/svg">
<path d="M16.5 4.5102C15.7501 4.25191 15.0881 3.78749 14.59 3.1702C14.041 2.48244 13.3421 1.92934 12.5465 1.55323C11.7509 1.17711 10.8799 0.987948 10 1.0002C8.81637 0.916378 7.64458 1.28145 6.71801 2.02271C5.79143 2.76397 5.17804 3.82704 5 5.0002C5.35067 4.41345 5.87845 3.95307 6.50739 3.68532C7.13633 3.41757 7.834 3.35626 8.5 3.5102C9.24869 3.77601 9.90958 4.24313 10.41 4.8602C10.962 5.54248 11.6623 6.08986 12.4577 6.46069C13.2531 6.83153 14.1226 7.01604 15 7.0002C16.1836 7.08403 17.3554 6.71896 18.282 5.9777C19.2086 5.23643 19.822 4.17337 20 3.0002C19.6557 3.59398 19.1296 4.06131 18.4994 4.3332C17.8691 4.6051 17.1682 4.66716 16.5 4.5102ZM3.5 9.4902C4.24995 9.74849 4.91192 10.2129 5.41 10.8302C5.95895 11.518 6.65794 12.0711 7.4535 12.4472C8.24906 12.8233 9.1201 13.0125 10 13.0002C11.1836 13.084 12.3554 12.719 13.282 11.9777C14.2086 11.2364 14.822 10.1734 15 9.0002C14.6493 9.58696 14.1215 10.0473 13.4926 10.3151C12.8637 10.5828 12.166 10.6441 11.5 10.4902C10.7513 10.2244 10.0904 9.75727 9.59 9.1402C9.03656 8.45962 8.33595 7.91344 7.54091 7.54276C6.74587 7.17209 5.8771 6.98658 5 7.0002C3.81637 6.91638 2.64458 7.28145 1.71801 8.02271C0.791428 8.76397 0.178042 9.82704 0 11.0002C0.344307 10.4064 0.870408 9.9391 1.50063 9.6672C2.13086 9.3953 2.83181 9.33325 3.5 9.4902Z" fill="#3F3D56"/>
</svg>
