<svg width="20" height="16" viewBox="0 0 20 16" fill="none" xmlns="http://www.w3.org/2000/svg">
<path d="M19 0.00012207H1C0.734784 0.00012207 0.48043 0.105479 0.292893 0.293015C0.105357 0.480552 0 0.734906 0 1.00012V15.0001C0 15.2653 0.105357 15.5197 0.292893 15.7072C0.48043 15.8948 0.734784 16.0001 1 16.0001H19C19.2652 16.0001 19.5196 15.8948 19.7071 15.7072C19.8946 15.5197 20 15.2653 20 15.0001V1.00012C20 0.734906 19.8946 0.480552 19.7071 0.293015C19.5196 0.105479 19.2652 0.00012207 19 0.00012207ZM18 11.0001C17.2044 11.0001 16.4413 11.3162 15.8787 11.8788C15.3161 12.4414 15 13.2045 15 14.0001H5C5 13.2045 4.68393 12.4414 4.12132 11.8788C3.55871 11.3162 2.79565 11.0001 2 11.0001V5.00012C2.79565 5.00012 3.55871 4.68405 4.12132 4.12144C4.68393 3.55883 5 2.79577 5 2.00012H15C15 2.79577 15.3161 3.55883 15.8787 4.12144C16.4413 4.68405 17.2044 5.00012 18 5.00012V11.0001Z" fill="#3F3D56"/>
</svg>
