<svg width="20" height="20" viewBox="0 0 20 20" fill="none" xmlns="http://www.w3.org/2000/svg">
<path d="M10 0.000244141C8.02219 0.000244141 6.08879 0.586734 4.4443 1.68555C2.79981 2.78436 1.51809 4.34615 0.761209 6.17341C0.00433284 8.00067 -0.193701 10.0113 0.192152 11.9511C0.578004 13.891 1.53041 15.6728 2.92894 17.0713C4.32746 18.4698 6.10929 19.4222 8.0491 19.8081C9.98891 20.194 11.9996 19.9959 13.8268 19.239C15.6541 18.4822 17.2159 17.2004 18.3147 15.5559C19.4135 13.9115 20 11.9781 20 10.0002C20 8.68703 19.7413 7.38667 19.2388 6.17341C18.7363 4.96015 17.9997 3.85776 17.0711 2.92918C16.1425 2.00059 15.0401 1.264 13.8268 0.761449C12.6136 0.258902 11.3132 0.000244141 10 0.000244141ZM10 13.0002C9.40666 13.0002 8.82664 12.8243 8.33329 12.4947C7.83995 12.165 7.45543 11.6965 7.22837 11.1483C7.0013 10.6001 6.94189 9.99692 7.05765 9.41497C7.1734 8.83303 7.45913 8.29848 7.87868 7.87892C8.29824 7.45937 8.83279 7.17364 9.41473 7.05789C9.99668 6.94213 10.5999 7.00154 11.1481 7.22861C11.6962 7.45567 12.1648 7.84019 12.4944 8.33353C12.8241 8.82688 13 9.4069 13 10.0002C13 10.7959 12.6839 11.559 12.1213 12.1216C11.5587 12.6842 10.7957 13.0002 10 13.0002ZM12.75 5.83024C12.2186 5.47752 11.6246 5.22973 11 5.10024V2.10024C12.4224 2.27829 13.7701 2.83809 14.9 3.72024L12.75 5.83024ZM9 5.10024C8.37545 5.22973 7.78144 5.47752 7.25 5.83024L5.1 3.69024C6.22993 2.80809 7.5776 2.24829 9 2.07024V5.10024ZM5.83 7.25024C5.47728 7.78168 5.22949 8.37569 5.1 9.00024H2.1C2.26927 7.58082 2.8186 6.23341 3.69 5.10024L5.83 7.25024ZM5.1 11.0002C5.22949 11.6248 5.47728 12.2188 5.83 12.7502L3.69 14.9002C2.80785 13.7703 2.24805 12.4226 2.07 11.0002H5.1ZM7.25 14.1702C7.78144 14.523 8.37545 14.7708 9 14.9002V17.9002C7.5776 17.7222 6.22993 17.1624 5.1 16.2802L7.25 14.1702ZM11 14.9002C11.6246 14.7708 12.2186 14.523 12.75 14.1702L14.9 16.3102C13.7701 17.1924 12.4224 17.7522 11 17.9302V14.9002ZM14.17 12.7502C14.5227 12.2188 14.7705 11.6248 14.9 11.0002H17.9C17.722 12.4226 17.1622 13.7703 16.28 14.9002L14.17 12.7502ZM14.9 9.00024C14.7705 8.37569 14.5227 7.78168 14.17 7.25024L16.31 5.10024C17.1922 6.23017 17.752 7.57784 17.93 9.00024H14.9Z" fill="#3F3D56"/>
</svg>
