<svg width="250" height="54" viewBox="0 0 250 54" fill="none" xmlns="http://www.w3.org/2000/svg">
<g filter="url(#filter0_b_1049_3831)">
<path d="M99.2926 9.18926C99.7571 8.31065 100.449 7.66054 101.477 7.83229C102.28 7.96656 102.976 8.71508 103.109 9.15744C103.439 10.2555 103.408 11.1789 103.22 11.6243C102.867 12.4637 102.439 13.157 101.495 13.2033C100.919 13.2316 100.049 12.715 99.5315 11.9858C98.879 11.0666 98.9539 9.82984 99.2926 9.18926Z" fill="#FEC887"/>
<path d="M114.703 14.7909C115.732 14.7324 116.698 14.9746 117.151 15.9038C117.505 16.6302 117.266 17.5749 116.962 17.9053C116.209 18.7256 115.394 19.162 114.9 19.2309C113.97 19.3608 113.121 19.3563 112.53 18.6057C112.168 18.1471 112.105 17.1752 112.431 16.3857C112.842 15.3906 113.953 14.8335 114.703 14.7909Z" fill="#FEC887"/>
<path d="M105.026 6.86718C105.629 6.07684 106.673 5.40754 107.669 5.7322C108.448 5.98602 109.098 7.20562 109.16 7.65935C109.313 8.78568 108.815 10.0428 108.557 10.4508C108.07 11.2196 107.192 11.5762 106.245 11.4781C105.667 11.4182 105.063 10.8371 104.665 10.0437C104.162 9.04374 104.586 7.4434 105.026 6.86718Z" fill="#FEC887"/>
<path d="M111.306 9.099C112.807 8.21583 113.845 8.46931 114.672 9.11746C115.498 9.76562 115.292 10.6238 115.084 11.4506C114.813 12.5345 113.872 13.5079 113.476 13.7899C112.728 14.3212 111.761 14.3374 110.897 13.9139C110.37 13.6551 109.839 12.9683 109.754 12.1022C109.647 11.0106 110.675 9.47076 111.306 9.099Z" fill="#FEC887"/>
<path d="M105.809 13.0101C106.698 12.9019 107.295 12.7899 108.119 13.1884C108.943 13.5868 109.389 14.0603 109.712 14.8969C109.967 15.5561 110.114 16.88 110.538 18.245C110.823 19.1639 111.236 19.8238 111.326 20.7708C111.44 21.9817 111.405 22.9351 110.505 23.7253C109.529 24.5823 108.704 24.8654 107.097 24.0884C105.637 23.3828 105.535 22.5288 104.075 21.8232C102.616 21.1176 100.961 21.6118 99.7503 20.5366C97.7616 18.7709 98.423 17.374 99.4881 15.9863C100.013 15.3018 101.276 15.0358 102.515 14.6344C103.676 14.2577 104.921 13.1182 105.809 13.0101Z" fill="#FEC887"/>
</g>
<g filter="url(#filter1_b_1049_3831)">
<path d="M134.726 6.18926C135.19 5.31065 135.882 4.66054 136.91 4.83229C137.713 4.96656 138.409 5.71508 138.542 6.15744C138.872 7.25553 138.841 8.17885 138.653 8.62434C138.3 9.46374 137.872 10.157 136.928 10.2033C136.352 10.2316 135.482 9.71504 134.965 8.98575C134.312 8.06662 134.387 6.82984 134.726 6.18926Z" fill="#FEC887"/>
<path d="M150.136 11.7909C151.166 11.7324 152.131 11.9746 152.584 12.9038C152.938 13.6302 152.699 14.5749 152.396 14.9053C151.642 15.7256 150.827 16.162 150.333 16.2309C149.403 16.3608 148.554 16.3563 147.963 15.6057C147.601 15.1471 147.538 14.1752 147.864 13.3857C148.275 12.3906 149.386 11.8335 150.136 11.7909Z" fill="#FEC887"/>
<path d="M140.459 3.86718C141.062 3.07684 142.106 2.40754 143.102 2.7322C143.881 2.98602 144.531 4.20562 144.593 4.65935C144.747 5.78568 144.248 7.04277 143.99 7.45077C143.503 8.21956 142.625 8.57622 141.678 8.47815C141.1 8.41821 140.497 7.83711 140.098 7.0437C139.595 6.04374 140.019 4.4434 140.459 3.86718Z" fill="#FEC887"/>
<path d="M146.739 6.099C148.24 5.21583 149.278 5.46931 150.105 6.11746C150.931 6.76562 150.725 7.62376 150.518 8.45058C150.246 9.53447 149.305 10.5079 148.909 10.7899C148.161 11.3212 147.194 11.3374 146.33 10.9139C145.803 10.6551 145.272 9.96831 145.187 9.10221C145.08 8.01064 146.108 6.47076 146.739 6.099Z" fill="#FEC887"/>
<path d="M141.242 10.0101C142.131 9.90188 142.728 9.78993 143.552 10.1884C144.376 10.5868 144.823 11.0603 145.145 11.8969C145.4 12.5561 145.547 13.88 145.971 15.245C146.256 16.1639 146.669 16.8238 146.759 17.7708C146.873 18.9817 146.839 19.9351 145.938 20.7253C144.962 21.5823 144.137 21.8654 142.53 21.0884C141.071 20.3828 140.968 19.5288 139.508 18.8232C138.049 18.1176 136.394 18.6118 135.183 17.5366C133.195 15.7709 133.856 14.374 134.921 12.9863C135.446 12.3018 136.709 12.0358 137.948 11.6344C139.11 11.2577 140.354 10.1182 141.242 10.0101Z" fill="#FEC887"/>
</g>
<g filter="url(#filter2_b_1049_3831)">
<path d="M81.2928 36.1893C81.7573 35.3107 82.449 34.6605 83.477 34.8323C84.2806 34.9666 84.9758 35.7151 85.1089 36.1574C85.4393 37.2555 85.4082 38.1789 85.2206 38.6243C84.867 39.4637 84.4388 40.157 83.4956 40.2033C82.9192 40.2316 82.0495 39.715 81.5317 38.9858C80.8792 38.0666 80.9542 36.8298 81.2928 36.1893Z" fill="#FEC887"/>
<path d="M96.7033 41.7909C97.7327 41.7324 98.698 41.9746 99.151 42.9038C99.5053 43.6302 99.2663 44.5749 98.9627 44.9053C98.2089 45.7256 97.3945 46.162 96.9006 46.2309C95.9699 46.3608 95.1216 46.3563 94.53 45.6057C94.1684 45.1471 94.1052 44.1752 94.4314 43.3857C94.8424 42.3906 95.9528 41.8335 96.7033 41.7909Z" fill="#FEC887"/>
<path d="M87.0262 33.8672C87.6292 33.0768 88.6736 32.4075 89.6695 32.7322C90.4482 32.986 91.0985 34.2056 91.1603 34.6593C91.3137 35.7857 90.815 37.0428 90.5569 37.4508C90.0706 38.2196 89.192 38.5762 88.2455 38.4781C87.6671 38.4182 87.0637 37.8371 86.6648 37.0437C86.1621 36.0437 86.5866 34.4434 87.0262 33.8672Z" fill="#FEC887"/>
<path d="M93.3064 36.099C94.8069 35.2158 95.8454 35.4693 96.6719 36.1175C97.4984 36.7656 97.2921 37.6238 97.0847 38.4506C96.8129 39.5345 95.8725 40.5079 95.4759 40.7899C94.7285 41.3212 93.761 41.3374 92.8975 40.9139C92.3699 40.6551 91.8395 39.9683 91.7545 39.1022C91.6474 38.0106 92.6747 36.4708 93.3064 36.099Z" fill="#FEC887"/>
<path d="M87.8096 40.0101C88.6985 39.9019 89.2953 39.7899 90.1194 40.1884C90.9436 40.5868 91.3897 41.0603 91.7126 41.8969C91.967 42.5561 92.1141 43.88 92.5379 45.245C92.8232 46.1639 93.2365 46.8238 93.3259 47.7708C93.4403 48.9817 93.4056 49.9351 92.5053 50.7253C91.5289 51.5823 90.7043 51.8654 89.0972 51.0884C87.6377 50.3828 87.5349 49.5288 86.0754 48.8232C84.6159 48.1176 82.9615 48.6118 81.7505 47.5366C79.7618 45.7709 80.4232 44.374 81.4883 42.9863C82.0136 42.3018 83.2764 42.0358 84.5148 41.6344C85.6767 41.2577 86.9208 40.1182 87.8096 40.0101Z" fill="#FEC887"/>
</g>
<g filter="url(#filter3_b_1049_3831)">
<path d="M116.726 33.1893C117.19 32.3107 117.882 31.6605 118.91 31.8323C119.714 31.9666 120.409 32.7151 120.542 33.1574C120.872 34.2555 120.841 35.1789 120.654 35.6243C120.3 36.4637 119.872 37.157 118.929 37.2033C118.352 37.2316 117.483 36.715 116.965 35.9858C116.312 35.0666 116.387 33.8298 116.726 33.1893Z" fill="#FEC887"/>
<path d="M132.136 38.7909C133.166 38.7324 134.131 38.9746 134.584 39.9038C134.938 40.6302 134.699 41.5749 134.396 41.9053C133.642 42.7256 132.828 43.162 132.334 43.2309C131.403 43.3608 130.555 43.3563 129.963 42.6057C129.602 42.1471 129.538 41.1752 129.864 40.3857C130.275 39.3906 131.386 38.8335 132.136 38.7909Z" fill="#FEC887"/>
<path d="M122.459 30.8672C123.062 30.0768 124.107 29.4075 125.103 29.7322C125.881 29.986 126.532 31.2056 126.593 31.6593C126.747 32.7857 126.248 34.0428 125.99 34.4508C125.504 35.2196 124.625 35.5762 123.679 35.4781C123.1 35.4182 122.497 34.8371 122.098 34.0437C121.595 33.0437 122.02 31.4434 122.459 30.8672Z" fill="#FEC887"/>
<path d="M128.739 33.099C130.24 32.2158 131.279 32.4693 132.105 33.1175C132.931 33.7656 132.725 34.6238 132.518 35.4506C132.246 36.5345 131.306 37.5079 130.909 37.7899C130.162 38.3212 129.194 38.3374 128.331 37.9139C127.803 37.6551 127.273 36.9683 127.188 36.1022C127.081 35.0106 128.108 33.4708 128.739 33.099Z" fill="#FEC887"/>
<path d="M123.243 37.0101C124.132 36.9019 124.728 36.7899 125.553 37.1884C126.377 37.5868 126.823 38.0603 127.146 38.8969C127.4 39.5561 127.547 40.88 127.971 42.245C128.256 43.1639 128.67 43.8238 128.759 44.7708C128.873 45.9817 128.839 46.9351 127.938 47.7253C126.962 48.5823 126.137 48.8654 124.53 48.0884C123.071 47.3828 122.968 46.5288 121.508 45.8232C120.049 45.1176 118.395 45.6118 117.184 44.5366C115.195 42.7709 115.856 41.374 116.921 39.9863C117.447 39.3018 118.71 39.0358 119.948 38.6344C121.11 38.2577 122.354 37.1182 123.243 37.0101Z" fill="#FEC887"/>
</g>
<path d="M76.1886 21.8V35H73.8486V23.98L70.6486 35H69.0886L65.8886 23.94V35H64.0086V21.8H67.5286L70.1886 31.3L72.8286 21.8H76.1886ZM84.4742 22.8C83.4609 22.8 82.7875 23.3333 82.4542 24.4C82.1342 25.4533 81.9742 26.7733 81.9742 28.36C81.9742 29.9467 82.1475 31.22 82.4942 32.18C82.8409 33.1267 83.5675 33.6 84.6742 33.6C85.3675 33.6 85.9609 33.4067 86.4542 33.02C86.9475 32.6333 87.3009 32.1 87.5142 31.42C87.7942 31.5133 87.9942 31.66 88.1142 31.86C88.2342 32.0467 88.2942 32.2933 88.2942 32.6C88.2942 33.2 88.1075 33.7133 87.7342 34.14C87.3742 34.5667 86.9009 34.8867 86.3142 35.1C85.7409 35.3267 85.1275 35.44 84.4742 35.44C82.6609 35.44 81.3675 34.8133 80.5942 33.56C79.8342 32.3067 79.4542 30.6067 79.4542 28.46C79.4542 26.3267 79.8609 24.62 80.6742 23.34C81.5009 22.0467 82.8275 21.4 84.6542 21.4C85.8275 21.4 86.7609 21.6333 87.4542 22.1C88.1609 22.5667 88.5142 23.3067 88.5142 24.32C88.5142 24.8 88.3742 25.1933 88.0942 25.5C87.8142 25.7933 87.4342 25.94 86.9542 25.94C86.4875 25.94 86.1409 25.8333 85.9142 25.62C86.0209 25.3267 86.0742 24.9933 86.0742 24.62C86.0742 23.4067 85.5409 22.8 84.4742 22.8ZM100.104 25.42C100.104 26.3267 99.8706 27.1 99.4039 27.74C98.9506 28.38 98.3239 28.8133 97.5239 29.04L101.004 35H98.4439L94.8839 28.68C94.8039 28.5333 94.7639 28.4 94.7639 28.28C95.7639 28.28 96.5039 28.06 96.9839 27.62C97.4639 27.1667 97.7039 26.46 97.7039 25.5C97.7039 24.7 97.4972 24.1067 97.0839 23.72C96.6839 23.32 96.0639 23.12 95.2239 23.12C94.8106 23.12 94.3839 23.1533 93.9439 23.22V35H91.6039V21.88C93.1772 21.7733 94.4306 21.72 95.3639 21.72C98.5239 21.72 100.104 22.9533 100.104 25.42ZM110.324 21.8V23.28H105.964V27.48H109.724V28.96H105.964V33.52H110.604L110.464 35H103.624V21.8H110.324ZM119.229 21.8L122.649 35H120.289L119.489 31.64H115.569L114.789 35H112.589L116.249 21.8H119.229ZM115.929 30.16H119.149L117.529 23.3L115.929 30.16ZM129.743 22.8C128.73 22.8 128.056 23.3333 127.723 24.4C127.403 25.4533 127.243 26.7733 127.243 28.36C127.243 29.9467 127.416 31.22 127.763 32.18C128.11 33.1267 128.836 33.6 129.943 33.6C130.636 33.6 131.23 33.4067 131.723 33.02C132.216 32.6333 132.57 32.1 132.783 31.42C133.063 31.5133 133.263 31.66 133.383 31.86C133.503 32.0467 133.563 32.2933 133.563 32.6C133.563 33.2 133.376 33.7133 133.003 34.14C132.643 34.5667 132.17 34.8867 131.583 35.1C131.01 35.3267 130.396 35.44 129.743 35.44C127.93 35.44 126.636 34.8133 125.863 33.56C125.103 32.3067 124.723 30.6067 124.723 28.46C124.723 26.3267 125.13 24.62 125.943 23.34C126.77 22.0467 128.096 21.4 129.923 21.4C131.096 21.4 132.03 21.6333 132.723 22.1C133.43 22.5667 133.783 23.3067 133.783 24.32C133.783 24.8 133.643 25.1933 133.363 25.5C133.083 25.7933 132.703 25.94 132.223 25.94C131.756 25.94 131.41 25.8333 131.183 25.62C131.29 25.3267 131.343 24.9933 131.343 24.62C131.343 23.4067 130.81 22.8 129.743 22.8ZM139.213 21.8V35H136.873V21.8H139.213ZM147.634 21.4C151.047 21.4 152.754 23.6733 152.754 28.22C152.754 33.0333 151.047 35.44 147.634 35.44C145.767 35.44 144.441 34.82 143.654 33.58C142.881 32.34 142.494 30.6333 142.494 28.46C142.494 26.3267 142.894 24.62 143.694 23.34C144.507 22.0467 145.821 21.4 147.634 21.4ZM147.634 34.04C148.701 34.04 149.401 33.5133 149.734 32.46C150.067 31.3933 150.234 30.0267 150.234 28.36C150.234 26.7733 150.061 25.4533 149.714 24.4C149.367 23.3333 148.674 22.8 147.634 22.8C146.581 22.8 145.881 23.3333 145.534 24.4C145.187 25.4533 145.014 26.7733 145.014 28.36C145.014 30.0267 145.181 31.3933 145.514 32.46C145.847 33.5133 146.554 34.04 147.634 34.04ZM163.21 35L157.91 25.96V35H156.03V21.8H157.81L163.11 30.84V21.8H164.99V35H163.21ZM175.493 21.8V23.28H171.133V27.48H174.893V28.96H171.133V33.52H175.773L175.633 35H168.793V21.8H175.493ZM182.638 21.4C183.784 21.4 184.704 21.62 185.398 22.06C186.104 22.5 186.458 23.2067 186.458 24.18C186.458 24.66 186.318 25.0533 186.038 25.36C185.758 25.6533 185.378 25.8 184.898 25.8C184.431 25.8 184.084 25.6933 183.858 25.48C183.964 25.1867 184.018 24.8533 184.018 24.48C184.018 23.3067 183.498 22.72 182.458 22.72C181.951 22.72 181.551 22.8467 181.258 23.1C180.978 23.34 180.838 23.7 180.838 24.18C180.838 24.62 180.951 25.02 181.178 25.38C181.404 25.74 181.684 26.06 182.018 26.34C182.364 26.62 182.831 26.96 183.418 27.36C184.111 27.8267 184.664 28.2467 185.078 28.62C185.504 28.98 185.864 29.42 186.158 29.94C186.451 30.4467 186.598 31.0333 186.598 31.7C186.598 32.8867 186.191 33.8067 185.378 34.46C184.564 35.1133 183.511 35.44 182.218 35.44C181.044 35.44 180.071 35.2067 179.298 34.74C178.538 34.26 178.158 33.52 178.158 32.52C178.158 32.04 178.298 31.6533 178.578 31.36C178.858 31.0533 179.231 30.9 179.698 30.9C180.164 30.9 180.511 31.0067 180.738 31.22C180.644 31.4867 180.598 31.82 180.598 32.22C180.598 33.4867 181.198 34.12 182.398 34.12C182.984 34.12 183.464 33.96 183.838 33.64C184.211 33.3067 184.398 32.86 184.398 32.3C184.398 31.86 184.284 31.46 184.058 31.1C183.831 30.74 183.544 30.42 183.198 30.14C182.864 29.86 182.404 29.52 181.818 29.12C181.124 28.6533 180.564 28.24 180.138 27.88C179.724 27.5067 179.371 27.0667 179.078 26.56C178.784 26.04 178.638 25.4467 178.638 24.78C178.638 23.7133 179.011 22.8867 179.758 22.3C180.518 21.7 181.478 21.4 182.638 21.4Z" fill="#FEC887"/>
<defs>
<filter id="filter0_b_1049_3831" x="92.4692" y="-0.351624" width="30.8582" height="30.8947" filterUnits="userSpaceOnUse" color-interpolation-filters="sRGB">
<feFlood flood-opacity="0" result="BackgroundImageFix"/>
<feGaussianBlur in="BackgroundImageFix" stdDeviation="3"/>
<feComposite in2="SourceAlpha" operator="in" result="effect1_backgroundBlur_1049_3831"/>
<feBlend mode="normal" in="SourceGraphic" in2="effect1_backgroundBlur_1049_3831" result="shape"/>
</filter>
<filter id="filter1_b_1049_3831" x="127.902" y="-3.35162" width="30.8582" height="30.8947" filterUnits="userSpaceOnUse" color-interpolation-filters="sRGB">
<feFlood flood-opacity="0" result="BackgroundImageFix"/>
<feGaussianBlur in="BackgroundImageFix" stdDeviation="3"/>
<feComposite in2="SourceAlpha" operator="in" result="effect1_backgroundBlur_1049_3831"/>
<feBlend mode="normal" in="SourceGraphic" in2="effect1_backgroundBlur_1049_3831" result="shape"/>
</filter>
<filter id="filter2_b_1049_3831" x="74.4695" y="26.6484" width="30.8582" height="30.8947" filterUnits="userSpaceOnUse" color-interpolation-filters="sRGB">
<feFlood flood-opacity="0" result="BackgroundImageFix"/>
<feGaussianBlur in="BackgroundImageFix" stdDeviation="3"/>
<feComposite in2="SourceAlpha" operator="in" result="effect1_backgroundBlur_1049_3831"/>
<feBlend mode="normal" in="SourceGraphic" in2="effect1_backgroundBlur_1049_3831" result="shape"/>
</filter>
<filter id="filter3_b_1049_3831" x="109.903" y="23.6484" width="30.8582" height="30.8947" filterUnits="userSpaceOnUse" color-interpolation-filters="sRGB">
<feFlood flood-opacity="0" result="BackgroundImageFix"/>
<feGaussianBlur in="BackgroundImageFix" stdDeviation="3"/>
<feComposite in2="SourceAlpha" operator="in" result="effect1_backgroundBlur_1049_3831"/>
<feBlend mode="normal" in="SourceGraphic" in2="effect1_backgroundBlur_1049_3831" result="shape"/>
</filter>
</defs>
</svg>
