<svg width="32" height="32" viewBox="0 0 32 32" fill="none" xmlns="http://www.w3.org/2000/svg">
<g filter="url(#filter0_b_1049_3834)">
<path d="M1.71035 19.1763C1.8971 18.7669 2.18511 18.4704 2.63022 18.5708C2.97822 18.6493 3.28875 19.0178 3.35271 19.2306C3.51147 19.7588 3.51199 20.1973 3.4379 20.4057C3.29832 20.7984 3.1244 21.1203 2.71904 21.1251C2.47133 21.1281 2.08913 20.8666 1.85527 20.5104C1.56052 20.0615 1.57419 19.4747 1.71035 19.1763Z" fill="#FEC887"/>
<path d="M8.42892 22.1205C8.87119 22.1114 9.29038 22.2442 9.49941 22.6942C9.66283 23.0461 9.57418 23.491 9.44843 23.6426C9.13627 24.019 8.79221 24.2116 8.58061 24.2354C8.18189 24.2802 7.81663 24.2626 7.55065 23.895C7.38812 23.6703 7.34629 23.207 7.47481 22.8375C7.63679 22.3718 8.10646 22.1271 8.42892 22.1205Z" fill="#FEC887"/>
<path d="M4.14367 18.1765C4.39137 17.8116 4.8309 17.5123 5.26456 17.6849C5.60361 17.8197 5.90191 18.4115 5.93533 18.6284C6.01831 19.1668 5.82251 19.7555 5.71755 19.9448C5.51978 20.3015 5.1469 20.4551 4.73795 20.3913C4.48805 20.3522 4.21952 20.0649 4.03586 19.6804C3.8044 19.1957 3.96309 18.4425 4.14367 18.1765Z" fill="#FEC887"/>
<path d="M6.88088 19.352C7.51358 18.9594 7.96448 19.0988 8.33003 19.4221C8.69558 19.7453 8.61971 20.1496 8.54286 20.539C8.44212 21.0495 8.05196 21.4953 7.88544 21.6221C7.57168 21.8612 7.1554 21.8513 6.77731 21.6342C6.54626 21.5015 6.30759 21.1653 6.25798 20.7519C6.19545 20.2309 6.61456 19.5173 6.88088 19.352Z" fill="#FEC887"/>
<path d="M4.57334 21.1118C4.95437 21.0765 5.2096 21.0341 5.57041 21.2386C5.93121 21.4431 6.13037 21.6764 6.28197 22.0801C6.40141 22.3982 6.48466 23.0304 6.68762 23.6872C6.82426 24.1293 7.01212 24.4506 7.06487 24.9026C7.13233 25.4805 7.13175 25.9332 6.75605 26.2926C6.34857 26.6824 5.99786 26.8019 5.29431 26.4032C4.65536 26.0411 4.59827 25.6332 3.95931 25.2711C3.32036 24.909 2.61557 25.1139 2.07807 24.5806C1.19537 23.7047 1.45911 23.0525 1.89675 22.412C2.11258 22.0961 2.65223 21.9926 3.17933 21.8242C3.67386 21.6663 4.19231 21.147 4.57334 21.1118Z" fill="#FEC887"/>
</g>
<g filter="url(#filter1_b_1049_3834)">
<path d="M15.3561 19.1763C15.5428 18.7669 15.8309 18.4704 16.276 18.5708C16.624 18.6493 16.9345 19.0178 16.9985 19.2306C17.1572 19.7588 17.1577 20.1973 17.0837 20.4057C16.9441 20.7984 16.7702 21.1203 16.3648 21.1251C16.1171 21.1281 15.7349 20.8666 15.501 20.5104C15.2063 20.0615 15.2199 19.4747 15.3561 19.1763Z" fill="#FEC887"/>
<path d="M22.0747 22.1205C22.5169 22.1114 22.9361 22.2442 23.1452 22.6942C23.3086 23.0461 23.2199 23.491 23.0942 23.6426C22.782 24.019 22.438 24.2116 22.2264 24.2354C21.8276 24.2802 21.4624 24.2626 21.1964 23.895C21.0339 23.6703 20.992 23.207 21.1206 22.8375C21.2825 22.3718 21.7522 22.1271 22.0747 22.1205Z" fill="#FEC887"/>
<path d="M17.7894 18.1765C18.0371 17.8116 18.4767 17.5123 18.9103 17.6849C19.2494 17.8197 19.5477 18.4115 19.5811 18.6284C19.6641 19.1668 19.4683 19.7555 19.3633 19.9448C19.1655 20.3015 18.7927 20.4551 18.3837 20.3913C18.1338 20.3522 17.8653 20.0649 17.6816 19.6804C17.4502 19.1957 17.6088 18.4425 17.7894 18.1765Z" fill="#FEC887"/>
<path d="M20.5266 19.352C21.1593 18.9594 21.6102 19.0988 21.9758 19.4221C22.3413 19.7453 22.2655 20.1496 22.1886 20.539C22.0879 21.0495 21.6977 21.4953 21.5312 21.6221C21.2174 21.8612 20.8012 21.8513 20.4231 21.6342C20.192 21.5015 19.9533 21.1653 19.9037 20.7519C19.8412 20.2309 20.2603 19.5173 20.5266 19.352Z" fill="#FEC887"/>
<path d="M18.2191 21.1118C18.6001 21.0765 18.8554 21.0341 19.2162 21.2386C19.577 21.4431 19.7761 21.6764 19.9277 22.0801C20.0472 22.3982 20.1304 23.0304 20.3334 23.6872C20.47 24.1293 20.6579 24.4506 20.7106 24.9026C20.7781 25.4805 20.7775 25.9332 20.4018 26.2926C19.9943 26.6824 19.6436 26.8019 18.9401 26.4032C18.3011 26.0411 18.244 25.6332 17.6051 25.2711C16.9661 24.909 16.2613 25.1139 15.7238 24.5806C14.8411 23.7047 15.1049 23.0525 15.5425 22.412C15.7583 22.0961 16.298 21.9926 16.8251 21.8242C17.3196 21.6663 17.8381 21.147 18.2191 21.1118Z" fill="#FEC887"/>
</g>
<g filter="url(#filter2_b_1049_3834)">
<path d="M8.84194 2.8904C9.02869 2.48106 9.3167 2.18451 9.76181 2.28489C10.1098 2.36337 10.4203 2.73196 10.4843 2.94473C10.6431 3.47291 10.6436 3.91141 10.5695 4.11983C10.4299 4.51255 10.256 4.8344 9.85064 4.83926C9.60292 4.84222 9.22072 4.58076 8.98686 4.22454C8.69211 3.7756 8.70578 3.18885 8.84194 2.8904Z" fill="#FEC887"/>
<path d="M15.5605 5.83459C16.0028 5.82553 16.422 5.95829 16.631 6.40836C16.7944 6.76023 16.7058 7.20509 16.58 7.3567C16.2679 7.73307 15.9238 7.92574 15.7122 7.94952C15.3135 7.99432 14.9482 7.97675 14.6822 7.60907C14.5197 7.38439 14.4779 6.92111 14.6064 6.55161C14.7684 6.08592 15.2381 5.8412 15.5605 5.83459Z" fill="#FEC887"/>
<path d="M11.2753 1.89056C11.523 1.52572 11.9625 1.22646 12.3962 1.39897C12.7352 1.53384 13.0335 2.12562 13.0669 2.3425C13.1499 2.88089 12.9541 3.46959 12.8491 3.6589C12.6514 4.01563 12.2785 4.16924 11.8695 4.10537C11.6196 4.06634 11.3511 3.77903 11.1675 3.39449C10.936 2.90983 11.0947 2.15657 11.2753 1.89056Z" fill="#FEC887"/>
<path d="M14.0125 3.06615C14.6452 2.6735 15.0961 2.81294 15.4616 3.13619C15.8272 3.45945 15.7513 3.86376 15.6745 4.25315C15.5737 4.76362 15.1835 5.20938 15.017 5.33625C14.7033 5.57533 14.287 5.56541 13.9089 5.34829C13.6779 5.21561 13.4392 4.87939 13.3896 4.46599C13.327 3.94498 13.7461 3.23144 14.0125 3.06615Z" fill="#FEC887"/>
<path d="M11.7049 4.82589C12.086 4.79063 12.3412 4.74826 12.702 4.95273C13.0628 5.15721 13.262 5.39046 13.4136 5.79418C13.533 6.11228 13.6162 6.74448 13.8192 7.40129C13.9558 7.84345 14.1437 8.16475 14.1965 8.61669C14.2639 9.19461 14.2633 9.64732 13.8876 10.0067C13.4802 10.3965 13.1295 10.516 12.4259 10.1173C11.7869 9.75523 11.7299 9.34727 11.0909 8.98517C10.452 8.62307 9.74716 8.82798 9.20967 8.29466C8.32696 7.41882 8.5907 6.76661 9.02834 6.12608C9.24417 5.81019 9.78382 5.70666 10.3109 5.53831C10.8055 5.38036 11.3239 4.86115 11.7049 4.82589Z" fill="#FEC887"/>
</g>
<g filter="url(#filter3_b_1049_3834)">
<path d="M22.4877 2.8904C22.6744 2.48106 22.9625 2.18451 23.4076 2.28489C23.7556 2.36337 24.0661 2.73196 24.1301 2.94473C24.2888 3.47291 24.2893 3.91141 24.2152 4.11983C24.0757 4.51255 23.9017 4.8344 23.4964 4.83926C23.2487 4.84222 22.8665 4.58076 22.6326 4.22454C22.3379 3.7756 22.3515 3.18885 22.4877 2.8904Z" fill="#FEC887"/>
<path d="M29.2063 5.83459C29.6485 5.82553 30.0677 5.95829 30.2768 6.40836C30.4402 6.76023 30.3515 7.20509 30.2258 7.3567C29.9136 7.73307 29.5696 7.92574 29.358 7.94952C28.9592 7.99432 28.594 7.97675 28.328 7.60907C28.1655 7.38439 28.1236 6.92111 28.2522 6.55161C28.4141 6.08592 28.8838 5.8412 29.2063 5.83459Z" fill="#FEC887"/>
<path d="M24.921 1.89056C25.1687 1.52572 25.6082 1.22646 26.0419 1.39897C26.3809 1.53384 26.6793 2.12562 26.7127 2.3425C26.7957 2.88089 26.5999 3.46959 26.4949 3.6589C26.2971 4.01563 25.9242 4.16924 25.5153 4.10537C25.2654 4.06634 24.9969 3.77903 24.8132 3.39449C24.5817 2.90983 24.7404 2.15657 24.921 1.89056Z" fill="#FEC887"/>
<path d="M27.6582 3.06615C28.2909 2.6735 28.7418 2.81294 29.1074 3.13619C29.4729 3.45945 29.3971 3.86376 29.3202 4.25315C29.2195 4.76362 28.8293 5.20938 28.6628 5.33625C28.349 5.57533 27.9327 5.56541 27.5547 5.34829C27.3236 5.21561 27.0849 4.87939 27.0353 4.46599C26.9728 3.94498 27.3919 3.23144 27.6582 3.06615Z" fill="#FEC887"/>
<path d="M25.3507 4.82589C25.7317 4.79063 25.9869 4.74826 26.3478 4.95273C26.7086 5.15721 26.9077 5.39046 27.0593 5.79418C27.1788 6.11228 27.262 6.74448 27.465 7.40129C27.6016 7.84345 27.7895 8.16475 27.8422 8.61669C27.9097 9.19461 27.9091 9.64732 27.5334 10.0067C27.1259 10.3965 26.7752 10.516 26.0717 10.1173C25.4327 9.75523 25.3756 9.34727 24.7367 8.98517C24.0977 8.62307 23.3929 8.82798 22.8554 8.29466C21.9727 7.41882 22.2365 6.76661 22.6741 6.12608C22.8899 5.81019 23.4296 5.70666 23.9567 5.53831C24.4512 5.38036 24.9697 4.86115 25.3507 4.82589Z" fill="#FEC887"/>
</g>
<defs>
<filter id="filter0_b_1049_3834" x="-4.5083" y="11.6347" width="20.0967" height="21.0151" filterUnits="userSpaceOnUse" color-interpolation-filters="sRGB">
<feFlood flood-opacity="0" result="BackgroundImageFix"/>
<feGaussianBlur in="BackgroundImageFix" stdDeviation="3"/>
<feComposite in2="SourceAlpha" operator="in" result="effect1_backgroundBlur_1049_3834"/>
<feBlend mode="normal" in="SourceGraphic" in2="effect1_backgroundBlur_1049_3834" result="shape"/>
</filter>
<filter id="filter1_b_1049_3834" x="9.13745" y="11.6347" width="20.0967" height="21.0151" filterUnits="userSpaceOnUse" color-interpolation-filters="sRGB">
<feFlood flood-opacity="0" result="BackgroundImageFix"/>
<feGaussianBlur in="BackgroundImageFix" stdDeviation="3"/>
<feComposite in2="SourceAlpha" operator="in" result="effect1_backgroundBlur_1049_3834"/>
<feBlend mode="normal" in="SourceGraphic" in2="effect1_backgroundBlur_1049_3834" result="shape"/>
</filter>
<filter id="filter2_b_1049_3834" x="2.62329" y="-4.65118" width="20.0967" height="21.0151" filterUnits="userSpaceOnUse" color-interpolation-filters="sRGB">
<feFlood flood-opacity="0" result="BackgroundImageFix"/>
<feGaussianBlur in="BackgroundImageFix" stdDeviation="3"/>
<feComposite in2="SourceAlpha" operator="in" result="effect1_backgroundBlur_1049_3834"/>
<feBlend mode="normal" in="SourceGraphic" in2="effect1_backgroundBlur_1049_3834" result="shape"/>
</filter>
<filter id="filter3_b_1049_3834" x="16.269" y="-4.65118" width="20.0967" height="21.0151" filterUnits="userSpaceOnUse" color-interpolation-filters="sRGB">
<feFlood flood-opacity="0" result="BackgroundImageFix"/>
<feGaussianBlur in="BackgroundImageFix" stdDeviation="3"/>
<feComposite in2="SourceAlpha" operator="in" result="effect1_backgroundBlur_1049_3834"/>
<feBlend mode="normal" in="SourceGraphic" in2="effect1_backgroundBlur_1049_3834" result="shape"/>
</filter>
</defs>
</svg>
